<svg version="1.2" xmlns="http://www.w3.org/2000/svg" viewBox="0 0.3999938964839771 495.600006103516 495.600006103516" width="128" height="128">
	<style>
		.s0 { fill: #212121 } 
	</style>
	<g id="Layer 1">
		<path id="&lt;Compound Path&gt;" class="s0" d="m410.64 380.13c5.34-6.43 10.91-12.69 16.01-19.31 18.29-23.78 31.21-50.19 38.13-79.45q0.27-1.15 0.45-2.31c0.04-0.27-0.11-0.57-0.24-1.22-1.05-0.11-2.18-0.33-3.31-0.33q-31.73-0.03-63.46-0.01c-2.27 0-4.53 0.12-6.79 0.11-1.04 0-2.08-0.19-3.45-0.33 11.25-33.57 11.71-66.84-0.59-100.45 1.5 0 2.62 0 3.75 0q34.68 0 69.37 0c4.67 0 5.03-0.39 3.89-4.91-7.18-28.64-19.82-54.68-38.05-77.87-21.08-26.81-46.46-48.55-77.05-63.95-19.84-9.98-40.9-16.19-62.75-19.85-14.01-2.35-28.12-3.48-42.32-2.94-36.92 1.4-71.63 10.71-103.53 29.66-36.17 21.5-64.71 50.43-84.69 87.58-11.62 21.58-18.99 44.62-22.82 68.81-2.3 14.53-3.28 29.13-2.63 43.82 1.81 40.79 14.32 78.08 36.77 112.11 7.55 11.45 15.93 22.22 25.58 31.99 1.96 1.98 1.95 2.56-0.09 4.6q-13.46 13.46-26.94 26.9c47.35 47.24 112.69 76.45 184.85 76.45 72.55 0 138.19-29.52 185.6-77.19-9.5-9.46-19.01-18.9-28.57-28.41 1.04-1.27 1.95-2.39 2.88-3.5zm-56.97-48.47c-1.82 1.79-3.76 3.46-5.72 5.1-20.73 17.36-44.36 28.62-70.98 33.38-20.57 3.67-40.92 2.2-61.1-2.99-53.37-13.71-89.67-55.1-102.44-102.12-3.47-12.78-5.68-25.74-5.27-39.02 1.11-36.53 12.96-68.92 37.7-96.18 22.3-24.57 50.09-39.16 82.7-44.79 37.03-6.39 71.34 0.76 103.08 20.68 7.61 4.77 14.48 10.52 21.06 16.61 2.32 2.15 2.3 2.6-0.05 4.96q-21.35 21.43-42.71 42.86c-1.59 1.59-3.17 3.18-5.04 5.05-16.47-16.51-36.13-23.12-58.78-21.38-18.85 1.45-34.5 9.33-47.22 23.24-26.82 29.31-26.88 70.79 0.01 100.63 22.91 25.43 71.22 36.25 107.03 1.5 5.27 5.41 10.49 10.87 15.82 16.22 9.92 9.97 19.91 19.88 29.87 29.82 0.77 0.76 1.56 1.51 2.24 2.34 1.36 1.67 1.37 2.56-0.2 4.09z"/>
	</g>
</svg>